<svg width="58" height="58" viewBox="0 0 58 58" fill="none" xmlns="http://www.w3.org/2000/svg">
<rect width="58" height="58" rx="8" fill="#E5FEE9"/>
<path d="M43.1666 43.1667H14.8333" stroke="#33B04E" stroke-linecap="round"/>
<path d="M36.0833 43.1667V20.5C36.0833 17.8282 36.0833 16.4937 35.2532 15.6635C34.423 14.8334 33.0885 14.8334 30.4167 14.8334H27.5833C24.9115 14.8334 23.577 14.8334 22.7468 15.6635C21.9167 16.4937 21.9167 17.8282 21.9167 20.5V43.1667M41.75 43.1667V24.0417C41.75 22.0527 41.75 21.0568 41.2726 20.3428C41.0658 20.0333 40.8001 19.7676 40.4906 19.5608C39.7766 19.0834 38.7807 19.0834 36.7917 19.0834M16.25 43.1667V24.0417C16.25 22.0527 16.25 21.0568 16.7274 20.3428C16.9342 20.0333 17.1999 19.7676 17.5094 19.5608C18.2234 19.0834 19.2193 19.0834 21.2083 19.0834" stroke="#33B04E"/>
<path d="M28.9998 43.1667V38.9167M26.1665 29H31.8332M19.7915 27.5834H21.9165M19.7915 31.8334H21.9165M36.0832 27.5834H38.2082M36.0832 31.8334H38.2082M19.7915 23.3334H21.9165M36.0832 23.3334H38.2082M26.1665 33.25H31.8332" stroke="#33B04E" stroke-linecap="round"/>
<path d="M28.9998 24.75C30.5646 24.75 31.8332 23.4815 31.8332 21.9167C31.8332 20.3519 30.5646 19.0834 28.9998 19.0834C27.435 19.0834 26.1665 20.3519 26.1665 21.9167C26.1665 23.4815 27.435 24.75 28.9998 24.75Z" stroke="#33B04E"/>
</svg>
