<svg width="24" height="24" viewBox="0 0 24 24" fill="none" xmlns="http://www.w3.org/2000/svg">
<path d="M9.7833 4.26646C9.84442 4.39086 9.88479 4.52408 9.90286 4.66103L10.237 9.62894L10.4028 12.1259C10.4046 12.3827 10.4448 12.6378 10.5224 12.8831C10.7227 13.3589 11.2046 13.6613 11.7289 13.6402L19.7176 13.1177C20.0635 13.112 20.3976 13.2414 20.6463 13.4774C20.8535 13.674 20.9873 13.9313 21.0295 14.208L21.0436 14.3761C20.713 18.9537 17.351 22.7718 12.7828 23.7574C8.21466 24.743 3.53024 22.661 1.27285 18.6417C0.622065 17.474 0.21558 16.1905 0.0772583 14.8666C0.0194743 14.4747 -0.00596942 14.0788 0.00117507 13.6829C-0.00595914 8.77511 3.48896 4.53218 8.3812 3.50931C8.97001 3.41763 9.54723 3.72933 9.7833 4.26646Z" fill="#168DE2"/>
<path opacity="0.4" d="M13.0448 0.000983023C18.5166 0.140192 23.1155 4.07495 24.0008 9.37475L23.9923 9.41385L23.9682 9.47073L23.9715 9.62683C23.959 9.83365 23.8791 10.0326 23.7415 10.1934C23.5982 10.3608 23.4023 10.4748 23.1867 10.5191L23.0552 10.5371L13.8382 11.1343C13.5316 11.1646 13.2264 11.0657 12.9984 10.8623C12.8084 10.6929 12.6869 10.4641 12.6526 10.2176L12.034 1.01407C12.0232 0.982955 12.0232 0.949218 12.034 0.918098C12.0424 0.664407 12.1541 0.424608 12.344 0.252276C12.534 0.0799437 12.7863 -0.0105604 13.0448 0.000983023Z" fill="#168DE2"/>
</svg>
