<svg width="58" height="58" viewBox="0 0 58 58" fill="none" xmlns="http://www.w3.org/2000/svg">
<rect width="58" height="58" rx="8" fill="#D8EEFF"/>
<path d="M29.0035 22.9792C27.8763 22.9792 26.7953 23.427 25.9983 24.224C25.2012 25.021 24.7535 26.102 24.7535 27.2292C24.7535 28.3564 25.2012 29.4374 25.9983 30.2344C26.7953 31.0314 27.8763 31.4792 29.0035 31.4792C30.1306 31.4792 31.2117 31.0314 32.0087 30.2344C32.8057 29.4374 33.2535 28.3564 33.2535 27.2292C33.2535 26.102 32.8057 25.021 32.0087 24.224C31.2117 23.427 30.1306 22.9792 29.0035 22.9792ZM26.5243 27.2292C26.5243 26.5717 26.7855 25.9411 27.2504 25.4762C27.7154 25.0112 28.346 24.75 29.0035 24.75C29.661 24.75 30.2916 25.0112 30.7565 25.4762C31.2214 25.9411 31.4826 26.5717 31.4826 27.2292C31.4826 27.8867 31.2214 28.5173 30.7565 28.9822C30.2916 29.4472 29.661 29.7084 29.0035 29.7084C28.346 29.7084 27.7154 29.4472 27.2504 28.9822C26.7855 28.5173 26.5243 27.8867 26.5243 27.2292ZM38.2083 34.6667L31.0626 42.253C30.7977 42.5342 30.4781 42.7584 30.1234 42.9116C29.7686 43.0648 29.3863 43.1438 28.9999 43.1438C28.6135 43.1438 28.2312 43.0648 27.8765 42.9116C27.5218 42.7584 27.2022 42.5342 26.9373 42.253L19.7916 34.6667H19.8185L19.8065 34.6525L19.7916 34.6348C17.9575 32.4657 16.9534 29.7157 16.9583 26.875C16.9583 20.2245 22.3494 14.8334 28.9999 14.8334C35.6505 14.8334 41.0416 20.2245 41.0416 26.875C41.0465 29.7157 40.0424 32.4657 38.2083 34.6348L38.1934 34.6525L38.1814 34.6667H38.2083ZM36.832 33.5199C38.4102 31.666 39.275 29.3097 39.2708 26.875C39.2708 21.2027 34.6723 16.6042 28.9999 16.6042C23.3276 16.6042 18.7291 21.2027 18.7291 26.875C18.7247 29.3098 19.5895 31.6661 21.1679 33.5199L21.3861 33.777L28.2264 41.0382C28.3258 41.1436 28.4456 41.2277 28.5787 41.2852C28.7117 41.3426 28.855 41.3722 28.9999 41.3722C29.1448 41.3722 29.2882 41.3426 29.4212 41.2852C29.5542 41.2277 29.6741 41.1436 29.7734 41.0382L36.6138 33.777L36.832 33.5199Z" fill="#168DE2"/>
</svg>
