<svg width="16" height="16" viewBox="0 0 16 16" fill="none" xmlns="http://www.w3.org/2000/svg">
<path fill-rule="evenodd" clip-rule="evenodd" d="M5.50259 1.33325H10.4979C13.0719 1.33325 14.6666 2.92859 14.6666 5.50392V10.5039C14.6666 13.0719 13.0719 14.6666 10.4979 14.6666H5.49592C2.92792 14.6666 1.33325 13.0719 1.33392 10.5019C1.33392 10.2206 1.56259 9.99192 1.84392 9.99192C2.12592 9.99192 2.35392 10.2206 2.35392 10.5019C2.35392 12.5246 3.46792 13.6446 5.50259 13.6446H10.4979C12.5266 13.6446 13.6466 12.5306 13.6466 10.5019V5.50192C13.6466 3.47325 12.5333 2.35325 10.4979 2.35325H5.50192C3.47325 2.35325 2.35325 3.47325 2.35325 5.50192V7.04392V7.05592C2.35325 7.33458 2.12792 7.55992 1.84925 7.55992H1.84325H1.84192C1.56059 7.55992 1.33259 7.33125 1.33325 7.04992V5.50192C1.33325 2.92859 2.93992 1.33325 5.50259 1.33325ZM5.01343 7.20258C5.45409 7.20258 5.81209 7.56058 5.81209 7.99991C5.81209 8.43991 5.45409 8.79791 5.01343 8.79791C4.57343 8.79791 4.21476 8.43991 4.21476 7.99991C4.21476 7.56058 4.57343 7.20258 5.01343 7.20258ZM7.99975 7.20258C8.44042 7.20258 8.79842 7.56058 8.79842 7.99991C8.79842 8.43991 8.44042 8.79791 7.99975 8.79791C7.55975 8.79791 7.20109 8.43991 7.20109 7.99991C7.20109 7.56058 7.55975 7.20258 7.99975 7.20258ZM11.7847 7.99992C11.7847 7.56059 11.4267 7.20259 10.9861 7.20259C10.5461 7.20259 10.1874 7.56059 10.1874 7.99992C10.1874 8.43992 10.5461 8.79792 10.9861 8.79792C11.4267 8.79792 11.7847 8.43992 11.7847 7.99992Z" fill="#181817"/>
</svg>
